<?xml version="1.0" encoding="utf-8"?>
<svg version="1.1" id="Design" x="0px" y="0px" viewBox="-0.802 31.652 1127.802 301.004" style="enable-background:new 0 0 1127 359.5;" xmlns="http://www.w3.org/2000/svg">
  <path style="fill: rgb(0, 47, 129);" d="M 583.197 251.481 L 616.798 251.481 L 616.798 236.597 L 583.197 236.597 L 583.197 214.818 L 620.081 214.818 L 620.081 199.166 L 563.825 199.166 L 563.825 266.366 C 563.825 280.704 573.019 289.68 585.824 289.68 L 621.615 289.68 L 621.615 274.029 L 595.564 274.029 C 587.685 274.029 583.197 270.964 583.197 262.755 L 583.197 251.481 Z M 1091.697 129.227 L 1121.36 129.227 L 1121.36 114.342 L 1091.697 114.342 L 1091.697 92.563 L 1124.424 92.563 L 1124.424 76.912 L 1072.324 76.912 L 1072.324 144.112 C 1072.324 158.45 1081.517 167.425 1094.324 167.425 L 1125.736 167.425 L 1125.736 151.774 L 1104.064 151.774 C 1096.184 151.774 1091.697 148.71 1091.697 140.5 L 1091.697 129.227 Z M 443.212 129.227 L 472.873 129.227 L 472.873 114.342 L 443.212 114.342 L 443.212 92.563 L 475.937 92.563 L 475.937 76.912 L 423.838 76.912 L 423.838 144.112 C 423.838 158.45 433.033 167.425 445.84 167.425 L 477.251 167.425 L 477.251 151.774 L 455.579 151.774 C 447.699 151.774 443.212 148.71 443.212 140.5 L 443.212 129.227 Z M 389.473 132.839 C 380.827 113.468 373.602 95.08 363.97 76.8 L 341.644 76.8 L 341.644 167.315 L 359.045 167.315 L 359.045 108.651 L 359.264 108.651 C 368.458 126.929 376.886 146.193 385.971 167.315 L 407.094 167.315 L 407.094 76.912 L 389.691 76.912 L 389.691 132.948 L 389.473 132.948 L 389.473 132.839 Z M 894.251 132.839 C 885.604 113.468 878.381 95.08 868.749 76.8 L 846.422 76.8 L 846.422 167.315 L 863.824 167.315 L 863.824 108.651 L 864.043 108.651 C 873.236 126.929 881.665 146.193 890.748 167.315 L 911.872 167.315 L 911.872 76.912 L 894.469 76.912 L 894.469 132.948 L 894.251 132.948 L 894.251 132.839 Z M 928.727 76.912 L 928.727 167.315 L 955.542 167.315 C 980.497 167.315 994.725 151.008 994.725 122.112 C 994.725 93.217 980.497 76.912 955.542 76.912 L 928.727 76.912 Z M 948.318 151.008 L 948.318 93.217 L 955.433 93.217 C 968.129 93.217 974.478 102.632 974.478 122.112 C 974.478 141.487 968.129 151.008 955.433 151.008 L 948.318 151.008 Z M 589.107 129.227 L 618.767 129.227 L 618.767 114.342 L 589.107 114.342 L 589.107 92.563 L 621.832 92.563 L 621.832 76.912 L 569.734 76.912 L 569.734 144.112 C 569.734 158.45 578.929 167.425 591.734 167.425 L 623.145 167.425 L 623.145 151.774 L 601.476 151.774 C 593.596 151.774 589.107 148.71 589.107 140.5 L 589.107 129.227 Z M 1055.578 95.299 L 1055.578 78.662 C 1049.232 76.8 1041.023 75.488 1034.676 75.488 C 1015.958 75.488 1005.234 85.12 1005.234 102.194 C 1005.234 114.888 1011.581 122.988 1025.371 128.898 C 1036.426 133.605 1039.6 137.983 1039.6 143.455 C 1039.6 148.927 1035.879 152.648 1028.327 152.648 C 1022.417 152.648 1012.128 150.023 1005.89 146.739 L 1005.452 146.739 L 1005.452 163.924 C 1012.675 166.986 1021.759 168.631 1030.735 168.631 C 1048.464 168.631 1059.957 158.779 1059.957 142.032 C 1059.957 126.929 1052.077 121.019 1038.505 114.561 C 1030.187 110.621 1025.151 107.337 1025.151 100.661 C 1025.151 95.188 1029.311 91.031 1035.769 91.031 C 1042.775 91.031 1049.67 93.217 1055.361 95.188 L 1055.578 95.188 L 1055.578 95.299 Z M 749.888 289.46 C 752.625 290.226 759.52 290.993 765.32 290.993 C 782.285 290.993 792.135 282.236 792.135 265.49 L 792.135 199.166 L 772.107 199.166 L 772.107 263.082 C 772.107 270.745 767.509 274.356 759.628 274.356 C 756.563 274.356 752.297 273.81 749.888 273.152 L 749.888 289.46 Z M 436.098 214.818 C 420.448 214.818 415.193 227.075 415.193 244.258 C 415.193 261.989 420.448 273.7 436.098 273.7 C 451.53 273.7 456.784 261.989 456.784 244.258 C 456.784 226.964 451.53 214.818 436.098 214.818 Z M 483.162 199.166 L 483.162 216.021 L 506.583 216.021 L 506.583 289.68 L 526.284 289.68 L 526.284 216.021 L 549.706 216.021 L 549.706 199.166 L 483.162 199.166 Z M 435.988 290.884 C 409.72 290.884 394.835 272.497 394.835 244.038 C 394.835 215.363 409.284 197.521 435.988 197.521 C 462.693 197.521 477.14 215.582 477.14 244.149 C 477.14 272.605 462.365 290.884 435.988 290.884 Z M 705.561 289.57 C 701.621 273.371 692.645 261.333 685.533 253.561 C 695.383 248.854 701.294 239.333 701.294 227.949 C 701.294 209.673 689.363 199.166 669.224 199.166 L 636.718 199.166 L 636.718 289.57 L 656.418 289.57 L 656.418 259.909 L 667.145 259.909 C 674.369 265.6 681.044 276.655 684.985 289.57 L 705.561 289.57 Z M 682.14 230.028 C 682.14 239.77 676.447 245.134 666.378 245.134 L 656.529 245.134 L 656.529 214.818 L 666.378 214.818 C 676.447 214.818 682.14 220.289 682.14 230.028 Z M 341.644 265.929 C 341.644 280.486 350.947 289.57 363.97 289.57 L 388.924 289.57 L 388.924 273.261 L 373.821 273.261 C 365.831 273.261 361.344 270.198 361.344 261.66 L 361.344 199.056 L 341.644 199.056 L 341.644 265.929 Z M 710.925 143.675 C 710.925 158.231 719.571 167.315 731.609 167.315 L 754.266 167.315 L 754.266 151.008 L 741.68 151.008 C 734.894 151.008 730.625 147.943 730.625 139.405 L 730.625 76.912 L 710.925 76.912 L 710.925 143.675 Z M 783.926 133.823 L 783.926 149.039 L 820.811 149.039 L 820.811 133.823 L 783.926 133.823 Z M 800.015 91.796 C 807.129 114.233 810.742 139.077 815.556 167.425 L 835.696 167.425 C 831.1 138.53 823.876 103.945 814.681 77.02 L 785.897 77.02 C 777.908 99.786 768.385 142.47 764.335 167.425 L 784.476 167.425 C 787.21 146.301 793.45 113.796 799.906 91.796 L 800.015 91.796 Z M 700.636 167.315 C 697.134 151.117 688.815 139.077 681.483 131.307 C 691.442 126.6 696.915 117.077 696.915 105.696 C 696.915 87.417 685.859 76.912 667.253 76.912 L 637.156 76.912 L 637.156 167.315 L 656.857 167.315 L 656.857 137.654 L 665.613 137.654 C 671.524 143.345 676.995 154.399 680.387 167.315 L 700.636 167.315 Z M 677.653 107.776 C 677.653 117.077 672.835 122.879 664.517 122.879 L 656.857 122.879 L 656.857 92.563 L 664.517 92.563 C 672.835 92.563 677.653 98.472 677.653 107.776 Z M 737.412 199.166 L 717.711 199.166 L 717.711 289.57 L 737.412 289.57 L 737.412 199.166 Z M 491.478 76.912 L 491.478 167.315 L 518.294 167.315 C 543.248 167.315 557.478 151.008 557.478 122.112 C 557.478 93.217 543.248 76.912 518.294 76.912 L 491.478 76.912 Z M 511.069 151.008 L 511.069 93.217 L 518.184 93.217 C 530.88 93.217 537.228 102.632 537.228 122.112 C 537.228 141.487 530.88 151.008 518.184 151.008 L 511.069 151.008 Z"/>
  <g style="" transform="matrix(1.094491, 0, 0, 1.094491, -53.467838, -15.464493)">
    <path style="fill:#FF9400;" d="M267.6,258.5c-27.2,23.6-58.8,36.6-94.7,39c-35.9,2.4-68.1-7.3-96.5-29.3 c29.1,32.5,63.4,48.6,102.6,48.2c39.3-0.4,72.6-14.6,100.1-42.8c27.5-28.2,39.6-63.1,36.5-104.8C310.8,205,294.8,234.9,267.6,258.5 z"/>
  </g>
  <path style="fill: rgb(215, 0, 40);" d="M 214.682 50.534 C 176.266 30.942 136.645 27.548 95.602 40.464 C 54.558 53.379 24.68 81.18 5.964 123.972 C 27.853 90.481 57.951 69.14 96.15 59.945 C 134.346 50.753 171.779 54.036 208.333 70.014 C 244.89 85.995 271.595 111.606 288.451 146.959 C 277.616 102.302 253.098 70.126 214.682 50.534 Z"/>
  <path style="fill: rgb(0, 47, 129);" d="M 80.827 82.382 C 46.569 95.299 22.708 118.392 9.246 151.555 C -4.217 184.826 -1.26 220.617 18.003 259.144 C 9.027 225.104 11.764 193.365 26.102 163.813 C 40.44 134.261 62.44 112.262 91.989 97.706 C 121.541 83.259 152.953 79.645 186.115 86.98 C 150.107 71.002 115.084 69.468 80.827 82.382 Z"/>
  <path style="fill: rgb(255, 90, 0);" d="M 253.428 209.343 C 245.108 206.06 237.777 203.215 231.427 201.026 C 226.175 199.056 221.031 197.085 215.887 195.006 C 210.742 192.927 205.708 190.737 200.781 188.55 C 217.638 187.126 229.897 184.281 237.557 179.792 C 245.219 175.415 250.253 171.256 252.66 167.315 C 253.536 165.893 253.865 164.141 252.66 163.155 C 241.825 154.62 228.582 148.381 212.822 144.659 C 197.06 140.939 182.067 140.39 167.948 143.237 C 164.336 144.112 160.943 143.455 157.55 141.375 C 154.265 139.297 150.544 136.342 146.386 132.401 C 144.746 130.978 143.322 129.773 142.009 128.68 C 140.804 127.585 139.71 127.148 138.944 127.477 C 137.302 128.353 136.974 136.56 138.067 152.431 C 124.496 158.559 113.442 163.924 104.906 168.631 C 99.323 171.364 92.428 175.524 84.11 181.106 C 83.235 181.653 82.467 182.091 81.812 182.53 C 81.155 182.967 80.388 183.404 79.513 183.951 C 77.324 185.595 74.916 185.921 72.508 184.826 C 71.084 183.951 69.224 182.2 66.707 179.465 C 64.19 176.729 61.673 173.772 59.264 170.708 C 56.53 167.096 53.793 163.924 51.164 161.186 C 48.539 158.45 46.787 157.355 46.021 157.903 C 45.145 158.45 44.926 159.874 45.145 162.28 C 45.364 164.689 46.021 167.315 46.787 170.38 C 49.851 180.12 51.385 188.33 51.385 195.335 C 51.603 200.37 50.837 207.701 48.867 217.333 C 47.991 221.164 47.554 224.227 47.444 226.31 C 47.335 228.388 47.773 229.701 48.867 230.248 C 50.509 231.125 52.589 230.028 55.105 227.184 C 57.623 224.227 61.344 219.412 66.27 212.407 C 69.335 207.156 71.632 203.981 73.275 202.886 C 74.369 202.339 75.79 202.339 77.434 202.886 C 87.393 206.498 99.541 210.766 113.771 215.802 C 127.999 220.836 138.724 224.338 145.948 226.638 C 147.918 227.184 148.683 228.059 148.464 229.154 C 148.137 230.248 146.496 232.765 144.964 235.064 C 140.696 241.084 144.088 244.367 147.153 244.367 C 150.655 244.367 155.469 241.631 160.068 238.894 C 163.679 236.706 166.086 234.19 168.824 230.796 L 174.623 230.796 C 194.325 230.248 210.087 228.934 221.907 226.856 C 233.836 224.776 244.344 219.96 253.428 212.517 C 254.084 211.971 254.412 211.204 254.412 210.766 C 254.522 210.111 254.193 209.673 253.428 209.343 Z M 198.266 167.096 C 198.266 164.908 199.032 163.047 200.563 161.734 C 202.095 160.311 203.845 159.655 205.708 159.655 C 207.896 159.655 209.757 160.311 211.07 161.734 C 212.494 163.155 213.151 164.908 213.151 167.096 C 213.151 169.067 212.494 170.818 211.07 172.24 C 209.648 173.772 207.896 174.54 205.708 174.54 C 203.738 174.54 201.986 173.772 200.563 172.24 C 199.032 170.708 198.266 168.957 198.266 167.096 Z"/>
  <radialGradient id="SVGID_1_" cx="1583.6428" cy="908.4622" r="49.4939" gradientTransform="matrix(1.006055, -0.478403, 0.092429, 0.19438, -1553.845845, 754.205474)" gradientUnits="userSpaceOnUse">
    <stop offset="0.2401" style="stop-color:#FFAD7F"/>
    <stop offset="0.7216" style="stop-color:#FF782F"/>
    <stop offset="1" style="stop-color:#FF5A00"/>
  </radialGradient>
  <path style="fill: url(#SVGID_1_);" d="M 176.155 149.584 C 179.111 155.823 157.769 172.132 128.437 186.031 C 99.103 199.931 73.056 206.171 70.099 200.041 C 67.147 193.802 88.486 177.495 117.82 163.593 C 147.042 149.584 173.202 143.345 176.155 149.584 Z"/>
</svg>
